<svg width="106" height="106" viewBox="0 0 106 106" fill="none" xmlns="http://www.w3.org/2000/svg">
<path d="M96 35.279C92.4234 42.5639 90.1614 52.3834 92.4975 64.9159C92.4975 64.9159 58.1219 54.2551 52.7795 98C47.4372 54.2875 13.0616 64.9159 13.0616 64.9159C15.2925 52.9274 13.3119 43.4173 10 36.2341C12.6882 29.5931 16.8507 23.7118 22.0794 19H34.2085C34.2085 19 35.0671 32.7067 39.2169 34.4565C39.9732 34.7742 40.7541 35.1559 41.5276 35.5341C45.0151 37.2389 48.3535 38.8709 48.6138 34.2297C48.9318 28.5591 49.6791 22.2728 49.6791 22.2728L50.6331 30.5357C50.6331 30.5357 51.2438 29.9133 52.7795 29.8884C54.3153 29.9133 54.926 30.5357 54.926 30.5357L55.88 22.2728C55.88 22.2728 56.6273 28.5915 56.9453 34.2297C57.2039 38.8409 60.501 37.2383 63.9639 35.5551C64.7595 35.1683 65.5639 34.7774 66.3422 34.4565C70.5079 32.7067 71.3506 19 71.3506 19H84.3196C89.2963 23.4847 93.307 29.0288 96 35.279Z" fill="#2A2D2D"/>
<path d="M52.7795 29.8884C52.811 29.8879 52.8428 29.8876 52.8749 29.8876H52.6841C52.7163 29.8876 52.7481 29.8879 52.7795 29.8884Z" fill="#2A2D2D"/>
<circle cx="53" cy="53" r="51.5" stroke="#2A2D2D" stroke-width="3"/>
</svg>
