<svg width="106" height="106" viewBox="0 0 106 106" fill="none" xmlns="http://www.w3.org/2000/svg">
<circle cx="53" cy="53" r="51.5" stroke="#95CECE" stroke-width="3"/>
<mask id="path-2-inside-1_14_1205" fill="white">
<path fill-rule="evenodd" clip-rule="evenodd" d="M91.0544 28.9711C84.9006 22.8108 76.3953 19 67 19C48.2223 19 33 34.2223 33 53C33 71.7777 48.2223 87 67 87C76.3953 87 84.9006 83.1892 91.0544 77.0289C83.0798 89.6318 69.0171 98 53 98C28.1472 98 8 77.8528 8 53C8 28.1472 28.1472 8 53 8C69.0171 8 83.0798 16.3682 91.0544 28.9711Z"/>
</mask>
<path fill-rule="evenodd" clip-rule="evenodd" d="M91.0544 28.9711C84.9006 22.8108 76.3953 19 67 19C48.2223 19 33 34.2223 33 53C33 71.7777 48.2223 87 67 87C76.3953 87 84.9006 83.1892 91.0544 77.0289C83.0798 89.6318 69.0171 98 53 98C28.1472 98 8 77.8528 8 53C8 28.1472 28.1472 8 53 8C69.0171 8 83.0798 16.3682 91.0544 28.9711Z" fill="#5D8383"/>
<path d="M91.0544 28.9711L90.3469 29.6779L91.8994 28.4364L91.0544 28.9711ZM91.0544 77.0289L91.8994 77.5636L90.3469 76.3221L91.0544 77.0289ZM67 20C76.1193 20 84.373 23.6977 90.3469 29.6779L91.7619 28.2644C85.4282 21.924 76.6714 18 67 18V20ZM34 53C34 34.7746 48.7746 20 67 20V18C47.67 18 32 33.67 32 53H34ZM67 86C48.7746 86 34 71.2254 34 53H32C32 72.33 47.67 88 67 88V86ZM90.3469 76.3221C84.373 82.3023 76.1193 86 67 86V88C76.6714 88 85.4282 84.076 91.7619 77.7356L90.3469 76.3221ZM90.2093 76.4942C82.4103 88.8196 68.6601 97 53 97V99C69.3742 99 83.7492 90.444 91.8994 77.5636L90.2093 76.4942ZM53 97C28.6995 97 9 77.3005 9 53H7C7 78.4051 27.5949 99 53 99V97ZM9 53C9 28.6995 28.6995 9 53 9V7C27.5949 7 7 27.5949 7 53H9ZM53 9C68.6601 9 82.4103 17.1804 90.2093 29.5058L91.8994 28.4364C83.7492 15.556 69.3742 7 53 7V9Z" fill="#95CECE" mask="url(#path-2-inside-1_14_1205)"/>
</svg>
