<svg xmlns="http://www.w3.org/2000/svg" xmlns:xlink="http://www.w3.org/1999/xlink" version="1.1" width="256" height="256" viewBox="0 0 256 256" xml:space="preserve">

<defs>
</defs>
<g style="stroke: none; stroke-width: 0; stroke-dasharray: none; stroke-linecap: butt; stroke-linejoin: miter; stroke-miterlimit: 10; fill: none; fill-rule: nonzero; opacity: 1;" transform="translate(1.4065934065934016 1.4065934065934016) scale(2.81 2.81)" >
	<path d="M 39.75 44.614 L 45 68.277 c 2.155 -23.047 2.839 -44.649 0 -62.795 h -6.404 C 22.533 8.486 10.375 22.581 10.375 39.516 v 34.057 C 18.715 75.13 25.887 81.301 30.271 90 h 7.073 c 0.415 -8.719 -0.392 -17.327 -2.541 -25.813 c -6.376 -4.388 -10.588 -11.718 -13.172 -21.26 C 28.096 40.914 34.078 41.83 39.75 44.614 z" style="stroke: none; stroke-width: 1; stroke-dasharray: none; stroke-linecap: butt; stroke-linejoin: miter; stroke-miterlimit: 10; fill: rgb(122,134,150); fill-rule: nonzero; opacity: 1;" transform=" matrix(1 0 0 1 0 0) " stroke-linecap="round" />
	<path d="M 50.25 44.614 L 45 68.277 V 5.482 h 6.404 c 16.064 3.004 28.221 17.099 28.221 34.034 v 34.057 C 71.285 75.13 64.113 81.301 59.729 90 h -7.073 c -0.415 -8.719 0.392 -17.327 2.541 -25.813 c 6.376 -4.388 10.588 -11.718 13.172 -21.26 C 61.904 40.914 55.922 41.83 50.25 44.614 z" style="stroke: none; stroke-width: 1; stroke-dasharray: none; stroke-linecap: butt; stroke-linejoin: miter; stroke-miterlimit: 10; fill: rgb(77,93,122); fill-rule: nonzero; opacity: 1;" transform=" matrix(1 0 0 1 0 0) " stroke-linecap="round" />
	<path d="M 45 0 h -7.104 l 4.595 35.933 H 45 C 46.707 23.406 46.827 11.39 45 0 z" style="stroke: none; stroke-width: 1; stroke-dasharray: none; stroke-linecap: butt; stroke-linejoin: miter; stroke-miterlimit: 10; fill: rgb(94,110,131); fill-rule: nonzero; opacity: 1;" transform=" matrix(1 0 0 1 0 0) " stroke-linecap="round" />
	<polygon points="45,0 52.1,0 47.51,35.93 45,35.93 " style="stroke: none; stroke-width: 1; stroke-dasharray: none; stroke-linecap: butt; stroke-linejoin: miter; stroke-miterlimit: 10; fill: rgb(64,80,110); fill-rule: nonzero; opacity: 1;" transform="  matrix(1 0 0 1 0 0) "/>
</g>
</svg>