<svg width="106" height="106" viewBox="0 0 106 106" fill="none" xmlns="http://www.w3.org/2000/svg">
<circle cx="53" cy="53" r="51.5" stroke="#8492a6" stroke-width="3"/>
<path fill-rule="evenodd" clip-rule="evenodd" d="M91.0544 28.9711C84.9006 22.8108 76.3953 19 67 19C48.2223 19 33 34.2223 33 53C33 71.7777 48.2223 87 67 87C76.3953 87 84.9006 83.1892 91.0544 77.0289C83.0798 89.6318 69.0171 98 53 98C28.1472 98 8 77.8528 8 53C8 28.1472 28.1472 8 53 8C69.0171 8 83.0798 16.3682 91.0544 28.9711Z" fill="#8492a6"/>
<path fill-rule="evenodd" clip-rule="evenodd" d="M63.2992 30H68.4192V34.7958C68.8453 34.774 69.2762 34.7631 69.712 34.7631C70.1403 34.7631 70.5626 34.7729 70.9789 34.7923V30H76.0989V35.6048C76.9557 35.8507 77.7793 36.1504 78.5696 36.5039C81.1979 37.6645 83.3824 39.337 85.1232 41.5215L78.672 47.3583C77.5115 45.993 76.2315 44.9519 74.832 44.2351C73.4667 43.5183 71.9307 43.1599 70.224 43.1599C68.7563 43.1599 67.408 43.3989 66.1792 43.8767C64.9504 44.3546 63.8923 45.0543 63.0048 45.9759C62.1515 46.8634 61.4688 47.9386 60.9568 49.2015C60.4789 50.4645 60.24 51.8639 60.24 53.3999C60.24 54.9359 60.4789 56.3354 60.9568 57.5983C61.4688 58.8613 62.1515 59.9535 63.0048 60.8751C63.8923 61.7626 64.9504 62.4453 66.1792 62.9231C67.408 63.401 68.7563 63.6399 70.224 63.6399C71.9307 63.6399 73.4667 63.2815 74.832 62.5647C76.2315 61.8479 77.5115 60.8069 78.672 59.4415L85.1232 65.2783C83.3824 67.4287 81.1979 69.1013 78.5696 70.2959C77.7793 70.6495 76.9558 70.9492 76.099 71.195V76.4H70.979V72.0076C70.5627 72.027 70.1403 72.0367 69.712 72.0367C69.2761 72.0367 68.8451 72.0262 68.4189 72.0052V76.4H63.2989L63.2989 71.1828C62.8002 71.0413 62.3096 70.8822 61.8272 70.7055C59.4379 69.7839 57.3557 68.4869 55.5808 66.8143C53.84 65.1418 52.4747 63.1791 51.4848 60.9263C50.4949 58.6394 50 56.1306 50 53.3999C50 50.6693 50.4949 48.1775 51.4848 45.9247C52.4747 43.6378 53.84 41.6581 55.5808 39.9855C57.3557 38.313 59.4379 37.033 61.8272 36.1455C62.3098 35.962 62.8004 35.7968 63.2992 35.6498V30Z" fill="#53D258" fill-opacity="0.8"/>
</svg>
