<svg width="16" height="16" viewBox="0 0 16 16" fill="none" xmlns="http://www.w3.org/2000/svg">
<path d="M6.33335 0.083374C7.49833 0.0833271 8.64014 0.408885 9.62992 1.02331C10.6197 1.63773 11.4181 2.51656 11.9349 3.56063C12.4517 4.60469 12.6665 5.77242 12.5549 6.93205C12.4433 8.09167 12.0098 9.19703 11.3034 10.1234L15.2559 14.0775C15.4053 14.2275 15.4921 14.4287 15.4985 14.6404C15.505 14.852 15.4307 15.0581 15.2906 15.2169C15.1506 15.3757 14.9554 15.4753 14.7446 15.4954C14.5339 15.5155 14.3233 15.4546 14.1559 15.325L14.0775 15.2559L10.1234 11.3034C9.33418 11.9051 8.41307 12.3103 7.43622 12.4854C6.45937 12.6604 5.45487 12.6004 4.50585 12.3101C3.55683 12.0199 2.69056 11.5078 1.97873 10.8163C1.2669 10.1248 0.72997 9.27375 0.412373 8.33353C0.0947765 7.39331 0.00564218 6.39098 0.152346 5.40947C0.299049 4.42796 0.677373 3.49549 1.25601 2.68923C1.83465 1.88297 2.59697 1.22609 3.47989 0.772946C4.3628 0.319803 5.34094 0.0834264 6.33335 0.083374ZM6.33335 1.75004C5.11777 1.75004 3.95199 2.23293 3.09244 3.09247C2.2329 3.95201 1.75002 5.1178 1.75002 6.33337C1.75002 7.54895 2.2329 8.71474 3.09244 9.57428C3.95199 10.4338 5.11777 10.9167 6.33335 10.9167C7.54893 10.9167 8.71472 10.4338 9.57426 9.57428C10.4338 8.71474 10.9167 7.54895 10.9167 6.33337C10.9167 5.1178 10.4338 3.95201 9.57426 3.09247C8.71472 2.23293 7.54893 1.75004 6.33335 1.75004Z" fill="#626262"/>
</svg>
